<svg width="200" height="51" viewBox="0 0 200 51" fill="none" xmlns="http://www.w3.org/2000/svg">
<path d="M38.94 19.98L25.53 6.68C25.37 6.52 25.1 6.52 24.94 6.68L20.61 10.96C20.53 11.04 20.48 11.15 20.48 11.26C20.48 11.38 20.53 11.49 20.61 11.57L29.67 20.28C29.84 20.45 29.84 20.72 29.67 20.89L20.62 29.54C20.54 29.62 20.49 29.73 20.49 29.84C20.49 29.96 20.54 30.07 20.62 30.14L24.95 34.42C25.11 34.58 25.38 34.58 25.54 34.42L38.95 21.12C39.03 21.04 39.07 20.93 39.07 20.82V20.27C39.07 20.16 39.03 20.05 38.95 19.97L38.94 19.98Z" fill="#281C92"/>
<path d="M17.66 30.12C17.49 29.95 17.49 29.68 17.66 29.51L26.71 20.86C26.79 20.78 26.84 20.67 26.84 20.56C26.84 20.44 26.79 20.33 26.72 20.26L22.39 15.98C22.23 15.82 21.96 15.82 21.8 15.98L8.39002 29.28C8.31002 29.36 8.27002 29.47 8.27002 29.58V30.13C8.27002 30.24 8.31002 30.35 8.39002 30.43L21.8 43.73C21.96 43.89 22.23 43.89 22.39 43.73L26.72 39.45C26.8 39.37 26.84 39.26 26.84 39.15C26.84 39.03 26.79 38.92 26.71 38.84L17.65 30.13L17.66 30.12Z" fill="#281C92"/>
<path d="M63.2 9.65998V33.47C63.2 33.71 63.01 33.9 62.77 33.9H59.55C59.33 33.9 59.15 33.74 59.13 33.52L59.01 32.54C58.97 32.18 58.52 32.03 58.27 32.3C56.94 33.76 55.09 34.28 53.28 34.28C48.16 34.28 44.32 30.89 44.32 25.18C44.32 19.18 48.09 16.08 53.18 16.08C54.68 16.08 56.87 16.74 58.18 17.97C58.45 18.23 58.9 18.04 58.9 17.66V9.65998C58.9 9.41998 59.09 9.22998 59.33 9.22998H62.78C63.02 9.22998 63.21 9.41998 63.21 9.65998H63.2ZM48.63 25.18C48.63 28.21 50.82 30.3 53.57 30.3C56.32 30.3 58.61 28.32 58.61 25.18C58.61 22.04 56.28 20.1 53.57 20.1C50.86 20.1 48.63 22.04 48.63 25.18ZM70.63 26.73C70.35 26.73 70.15 27 70.22 27.27C70.73 29.14 72.53 30.43 75.3 30.43C76.75 30.43 78.62 29.93 79.68 29.06C79.85 28.92 80.09 28.94 80.24 29.09L82.39 31.22C82.56 31.39 82.56 31.67 82.39 31.84C80.54 33.53 77.73 34.35 75.23 34.35C69.23 34.35 65.67 30.65 65.67 25.07C65.67 19.49 69.27 15.97 74.91 15.97C80.55 15.97 84.23 19.44 83.73 26.33C83.71 26.55 83.53 26.73 83.3 26.73H70.63ZM79.05 23.17C79.33 23.17 79.53 22.91 79.47 22.65C79 20.74 77.32 19.79 75.05 19.79C72.94 19.79 71.17 20.72 70.39 22.58C70.27 22.86 70.48 23.17 70.78 23.17H79.05ZM97.62 20.8C97.47 20.98 97.2 21 97.02 20.85C95.86 19.9 94.55 19.58 93.03 19.58C90.98 19.58 89.85 20.22 89.85 21.31C89.85 22.4 90.87 23.07 93.1 23.22C96.38 23.43 100.54 24.17 100.54 28.79C100.54 31.86 98.04 34.51 93.06 34.51C90.4 34.51 87.74 34.08 85.27 31.66C85.12 31.52 85.1 31.28 85.22 31.11L86.85 28.75C86.99 28.54 87.29 28.5 87.48 28.67C88.84 29.87 91.36 30.73 93.14 30.77C94.76 30.81 96.28 29.96 96.28 28.69C96.28 27.49 95.29 27 92.82 26.86C89.54 26.61 85.62 25.41 85.62 21.46C85.62 17.51 89.78 16.03 92.96 16.03C95.53 16.03 97.49 16.5 99.4 18.04C99.59 18.19 99.61 18.47 99.46 18.65L97.62 20.82V20.8ZM117 16.5H120.3C120.54 16.5 120.73 16.69 120.73 16.93V33.47C120.73 33.71 120.54 33.9 120.3 33.9H117.06C116.84 33.9 116.65 33.73 116.64 33.51L116.56 32.56C116.53 32.19 116.07 32.03 115.82 32.31C114.57 33.71 112.43 34.4 110.82 34.43C105.67 34.47 101.86 31.29 101.86 25.19C101.86 19.09 105.85 16.05 110.93 16.09C112.83 16.09 114.66 16.82 115.8 18.02C116.06 18.29 116.51 18.12 116.53 17.75L116.58 16.91C116.59 16.68 116.78 16.51 117.01 16.51L117 16.5ZM106.16 25.18C106.16 28.5 108.45 30.47 111.31 30.47C118.08 30.47 118.08 19.92 111.31 19.92C108.45 19.92 106.16 21.86 106.16 25.18ZM139.25 16.78L142.57 28.19C142.69 28.6 143.26 28.6 143.39 28.19L146.87 16.77C146.92 16.59 147.09 16.47 147.28 16.47H151.13C151.42 16.47 151.63 16.76 151.53 17.04L145.76 33.69C145.7 33.86 145.54 33.98 145.36 33.98H140.96C140.78 33.98 140.62 33.87 140.56 33.69L138.87 28.84C138.87 28.84 138.87 28.82 138.87 28.81L137.73 24.55C137.62 24.13 137.02 24.13 136.91 24.55L135.77 28.81C135.77 28.81 135.77 28.83 135.77 28.84L134.08 33.69C134.02 33.86 133.86 33.98 133.68 33.98H129.28C129.1 33.98 128.94 33.87 128.88 33.69L123.07 17.04C122.97 16.76 123.18 16.47 123.47 16.47H127.35C127.54 16.47 127.7 16.59 127.76 16.77L131.24 28.18C131.36 28.59 131.94 28.58 132.06 28.18L135.35 16.78C135.4 16.6 135.57 16.47 135.76 16.47H138.89C139.08 16.47 139.25 16.6 139.3 16.78H139.25ZM167.59 16.5H170.89C171.13 16.5 171.32 16.69 171.32 16.93V33.47C171.32 33.71 171.13 33.9 170.89 33.9H167.65C167.43 33.9 167.24 33.73 167.23 33.51L167.15 32.56C167.12 32.19 166.66 32.03 166.41 32.31C165.16 33.71 163.02 34.4 161.41 34.43C156.26 34.47 152.45 31.29 152.45 25.19C152.45 19.09 156.44 16.05 161.52 16.09C163.42 16.09 165.25 16.82 166.39 18.02C166.65 18.29 167.1 18.12 167.12 17.75L167.17 16.91C167.18 16.68 167.37 16.51 167.6 16.51L167.59 16.5ZM156.74 25.18C156.74 28.5 159.03 30.47 161.89 30.47C168.66 30.47 168.66 19.92 161.89 19.92C159.03 19.92 156.74 21.86 156.74 25.18ZM191.7 17.1L181.45 40.91C181.38 41.07 181.23 41.17 181.06 41.17H177.26C176.95 41.17 176.75 40.86 176.87 40.58L179.79 33.79C179.84 33.69 179.84 33.57 179.79 33.46L173.15 17.1C173.04 16.82 173.24 16.51 173.55 16.51H177.62C177.8 16.51 177.96 16.62 178.02 16.79L180.57 24.02L181.84 27.79C181.97 28.17 182.5 28.18 182.64 27.8L184.02 24.12L187.09 16.76C187.16 16.6 187.31 16.5 187.48 16.5H191.31C191.62 16.5 191.82 16.81 191.7 17.1Z" fill="#281C92"/>
</svg>
