<svg width="80" height="80" viewBox="0 0 80 80" fill="none" xmlns="http://www.w3.org/2000/svg">
<path d="M30 43.3333H50C50.9444 43.3333 51.7361 43.0139 52.375 42.375C53.0139 41.7361 53.3333 40.9444 53.3333 40C53.3333 39.0556 53.0139 38.2639 52.375 37.625C51.7361 36.9861 50.9444 36.6667 50 36.6667H30C29.0555 36.6667 28.2639 36.9861 27.625 37.625C26.9861 38.2639 26.6666 39.0556 26.6666 40C26.6666 40.9444 26.9861 41.7361 27.625 42.375C28.2639 43.0139 29.0555 43.3333 30 43.3333ZM30 53.3333H50C50.9444 53.3333 51.7361 53.0139 52.375 52.375C53.0139 51.7361 53.3333 50.9444 53.3333 50C53.3333 49.0556 53.0139 48.2639 52.375 47.625C51.7361 46.9861 50.9444 46.6667 50 46.6667H30C29.0555 46.6667 28.2639 46.9861 27.625 47.625C26.9861 48.2639 26.6666 49.0556 26.6666 50C26.6666 50.9444 26.9861 51.7361 27.625 52.375C28.2639 53.0139 29.0555 53.3333 30 53.3333ZM30 63.3333H40C40.9444 63.3333 41.7361 63.0139 42.375 62.375C43.0139 61.7361 43.3333 60.9444 43.3333 60C43.3333 59.0556 43.0139 58.2639 42.375 57.625C41.7361 56.9861 40.9444 56.6667 40 56.6667H30C29.0555 56.6667 28.2639 56.9861 27.625 57.625C26.9861 58.2639 26.6666 59.0556 26.6666 60C26.6666 60.9444 26.9861 61.7361 27.625 62.375C28.2639 63.0139 29.0555 63.3333 30 63.3333ZM20 73.3333C18.1666 73.3333 16.5972 72.6806 15.2916 71.375C13.9861 70.0694 13.3333 68.5 13.3333 66.6667V13.3333C13.3333 11.5 13.9861 9.93056 15.2916 8.62501C16.5972 7.31945 18.1666 6.66667 20 6.66667H43.9166C44.8055 6.66667 45.6528 6.83334 46.4583 7.16667C47.2639 7.50001 47.9722 7.97223 48.5833 8.58334L64.75 24.75C65.3611 25.3611 65.8333 26.0694 66.1666 26.875C66.5 27.6806 66.6666 28.5278 66.6666 29.4167V66.6667C66.6666 68.5 66.0139 70.0694 64.7083 71.375C63.4028 72.6806 61.8333 73.3333 60 73.3333H20ZM60 30H48.3333C46.9444 30 45.7639 29.5139 44.7916 28.5417C43.8194 27.5694 43.3333 26.3889 43.3333 25V13.3333H20V66.6667H60V30Z" fill="#4D406E"/>
</svg>
