<?xml version="1.0" encoding="UTF-8"?>
<svg id="Capa_2" data-name="Capa 2" xmlns="http://www.w3.org/2000/svg" viewBox="0 0 200 50.4">
  <defs>
    <style>
      .cls-1 {
        fill: #000;
        stroke-width: 0px;
      }
    </style>
  </defs>
  <g>
    <path class="cls-1" d="M38.94,19.98l-13.41-13.3c-.16-.16-.43-.16-.59,0l-4.33,4.28c-.08.08-.13.19-.13.3h0c0,.12.05.23.13.31l9.06,8.71c.17.17.17.44,0,.61l-9.05,8.65c-.08.08-.13.19-.13.3h0c0,.12.05.23.13.3l4.33,4.28c.16.16.43.16.59,0l13.41-13.3c.08-.08.12-.19.12-.3v-.55c0-.11-.04-.22-.12-.3Z"/>
    <path class="cls-1" d="M17.66,30.12c-.17-.17-.17-.44,0-.61l9.05-8.65c.08-.08.13-.19.13-.3h0c0-.12-.05-.23-.12-.3l-4.33-4.28c-.16-.16-.43-.16-.59,0l-13.41,13.3c-.08.08-.12.19-.12.3v.55c0,.11.04.22.12.3l13.41,13.3c.16.16.43.16.59,0l4.33-4.28c.08-.08.12-.19.12-.3h0c0-.12-.05-.23-.13-.31l-9.06-8.71Z"/>
  </g>
  <path class="cls-1" d="M63.2,9.66v23.81c0,.24-.19.43-.43.43h-3.22c-.22,0-.4-.16-.42-.38l-.12-.98c-.04-.36-.49-.51-.74-.24-1.33,1.46-3.18,1.98-4.99,1.98-5.12,0-8.96-3.39-8.96-9.1,0-6,3.77-9.1,8.86-9.1,1.5,0,3.69.66,5,1.89.27.26.72.07.72-.31v-8c0-.24.19-.43.43-.43h3.45c.24,0,.43.19.43.43ZM48.63,25.18c0,3.03,2.19,5.12,4.94,5.12s5.04-1.98,5.04-5.12-2.33-5.08-5.04-5.08-4.94,1.94-4.94,5.08ZM70.63,26.73c-.28,0-.48.27-.41.54.51,1.87,2.31,3.16,5.08,3.16,1.45,0,3.32-.5,4.38-1.37.17-.14.41-.12.56.03l2.15,2.13c.17.17.17.45,0,.62-1.85,1.69-4.66,2.51-7.16,2.51-6,0-9.56-3.7-9.56-9.28s3.6-9.1,9.24-9.1,9.32,3.47,8.82,10.36c-.02.22-.2.4-.43.4h-12.67ZM79.05,23.17c.28,0,.48-.26.42-.52-.47-1.91-2.15-2.86-4.42-2.86-2.11,0-3.88.93-4.66,2.79-.12.28.09.59.39.59h8.27ZM97.62,20.8c-.15.18-.42.2-.6.05-1.16-.95-2.47-1.27-3.99-1.27-2.05,0-3.18.64-3.18,1.73s1.02,1.76,3.25,1.91c3.28.21,7.44.95,7.44,5.57,0,3.07-2.5,5.72-7.48,5.72-2.66,0-5.32-.43-7.79-2.85-.15-.14-.17-.38-.05-.55l1.63-2.36c.14-.21.44-.25.63-.08,1.36,1.2,3.88,2.06,5.66,2.1,1.62.04,3.14-.81,3.14-2.08,0-1.2-.99-1.69-3.46-1.83-3.28-.25-7.2-1.45-7.2-5.4s4.16-5.43,7.34-5.43c2.57,0,4.53.47,6.44,2.01.19.15.21.43.06.61l-1.84,2.17ZM117,16.5h3.3c.24,0,.43.19.43.43v16.54c0,.24-.19.43-.43.43h-3.24c-.22,0-.41-.17-.42-.39l-.08-.95c-.03-.37-.49-.53-.74-.25-1.25,1.4-3.39,2.09-5,2.12-5.15.04-8.96-3.14-8.96-9.24s3.99-9.14,9.07-9.1c1.9,0,3.73.73,4.87,1.93.26.27.71.1.73-.27l.05-.84c.01-.23.2-.4.43-.4ZM106.16,25.18c0,3.32,2.29,5.29,5.15,5.29,6.77,0,6.77-10.55,0-10.55-2.86,0-5.15,1.94-5.15,5.26ZM139.25,16.78l3.32,11.41c.12.41.69.41.82,0l3.48-11.42c.05-.18.22-.3.41-.3h3.85c.29,0,.5.29.4.57l-5.77,16.65c-.06.17-.22.29-.4.29h-4.4c-.18,0-.34-.11-.4-.29l-1.69-4.85s0-.02,0-.03l-1.14-4.26c-.11-.42-.71-.42-.82,0l-1.14,4.26s0,.02,0,.03l-1.69,4.85c-.06.17-.22.29-.4.29h-4.4c-.18,0-.34-.11-.4-.29l-5.81-16.65c-.1-.28.11-.57.4-.57h3.88c.19,0,.35.12.41.3l3.48,11.41c.12.41.7.4.82,0l3.29-11.4c.05-.18.22-.31.41-.31h3.13c.19,0,.36.13.41.31ZM167.59,16.5h3.3c.24,0,.43.19.43.43v16.54c0,.24-.19.43-.43.43h-3.24c-.22,0-.41-.17-.42-.39l-.08-.95c-.03-.37-.49-.53-.74-.25-1.25,1.4-3.39,2.09-5,2.12-5.15.04-8.96-3.14-8.96-9.24s3.99-9.14,9.07-9.1c1.9,0,3.73.73,4.87,1.93.26.27.71.1.73-.27l.05-.84c.01-.23.2-.4.43-.4ZM156.74,25.18c0,3.32,2.29,5.29,5.15,5.29,6.77,0,6.77-10.55,0-10.55-2.86,0-5.15,1.94-5.15,5.26ZM191.7,17.1l-10.25,23.81c-.07.16-.22.26-.39.26h-3.8c-.31,0-.51-.31-.39-.59l2.92-6.79c.05-.1.05-.22,0-.33l-6.64-16.36c-.11-.28.09-.59.4-.59h4.07c.18,0,.34.11.4.28l2.55,7.23,1.27,3.77c.13.38.66.39.8.01l1.38-3.68,3.07-7.36c.07-.16.22-.26.39-.26h3.83c.31,0,.51.31.39.6Z"/>
</svg>